<svg width="293" height="54" viewBox="0 0 293 54" fill="none" xmlns="http://www.w3.org/2000/svg">
<path d="M119 14C119 6.26801 125.268 0 133 0H279C286.732 0 293 6.26801 293 14V40C293 47.732 286.732 54 279 54H133C125.268 54 119 47.732 119 40V14Z" fill="#0075FF"/>
<path d="M158.828 25.3359V29.5C158.688 29.7083 158.464 29.9427 158.156 30.2031C157.849 30.4583 157.424 30.6823 156.883 30.875C156.346 31.0625 155.654 31.1562 154.805 31.1562C154.112 31.1562 153.474 31.0365 152.891 30.7969C152.312 30.5521 151.81 30.1979 151.383 29.7344C150.961 29.2656 150.633 28.6979 150.398 28.0312C150.169 27.3594 150.055 26.599 150.055 25.75V24.8672C150.055 24.0182 150.154 23.2604 150.352 22.5938C150.555 21.9271 150.852 21.362 151.242 20.8984C151.633 20.4297 152.112 20.0755 152.68 19.8359C153.247 19.5911 153.898 19.4688 154.633 19.4688C155.503 19.4688 156.229 19.6198 156.812 19.9219C157.401 20.2188 157.859 20.6302 158.188 21.1562C158.521 21.6823 158.734 22.2812 158.828 22.9531H157.32C157.253 22.5417 157.117 22.1667 156.914 21.8281C156.716 21.4896 156.432 21.2188 156.062 21.0156C155.693 20.8073 155.216 20.7031 154.633 20.7031C154.107 20.7031 153.651 20.7995 153.266 20.9922C152.88 21.1849 152.562 21.4609 152.312 21.8203C152.062 22.1797 151.875 22.6146 151.75 23.125C151.63 23.6354 151.57 24.2109 151.57 24.8516V25.75C151.57 26.4062 151.646 26.9922 151.797 27.5078C151.953 28.0234 152.174 28.4635 152.461 28.8281C152.747 29.1875 153.089 29.4609 153.484 29.6484C153.885 29.8359 154.328 29.9297 154.812 29.9297C155.349 29.9297 155.784 29.8854 156.117 29.7969C156.451 29.7031 156.711 29.5938 156.898 29.4688C157.086 29.3385 157.229 29.2161 157.328 29.1016V26.5547H154.695V25.3359H158.828ZM164.617 31.1562C164.029 31.1562 163.495 31.0573 163.016 30.8594C162.542 30.6562 162.133 30.3724 161.789 30.0078C161.451 29.6432 161.19 29.2109 161.008 28.7109C160.826 28.2109 160.734 27.6641 160.734 27.0703V26.7422C160.734 26.0547 160.836 25.4427 161.039 24.9062C161.242 24.3646 161.518 23.9062 161.867 23.5312C162.216 23.1562 162.612 22.8724 163.055 22.6797C163.497 22.487 163.956 22.3906 164.43 22.3906C165.034 22.3906 165.555 22.4948 165.992 22.7031C166.435 22.9115 166.797 23.2031 167.078 23.5781C167.359 23.9479 167.568 24.3854 167.703 24.8906C167.839 25.3906 167.906 25.9375 167.906 26.5312V27.1797H161.594V26H166.461V25.8906C166.44 25.5156 166.362 25.151 166.227 24.7969C166.096 24.4427 165.888 24.151 165.602 23.9219C165.315 23.6927 164.924 23.5781 164.43 23.5781C164.102 23.5781 163.799 23.6484 163.523 23.7891C163.247 23.9245 163.01 24.1276 162.812 24.3984C162.615 24.6693 162.461 25 162.352 25.3906C162.242 25.7812 162.188 26.2318 162.188 26.7422V27.0703C162.188 27.4714 162.242 27.849 162.352 28.2031C162.466 28.5521 162.63 28.8594 162.844 29.125C163.062 29.3906 163.326 29.599 163.633 29.75C163.945 29.901 164.299 29.9766 164.695 29.9766C165.206 29.9766 165.638 29.8724 165.992 29.6641C166.346 29.4557 166.656 29.1771 166.922 28.8281L167.797 29.5234C167.615 29.7995 167.383 30.0625 167.102 30.3125C166.82 30.5625 166.474 30.7656 166.062 30.9219C165.656 31.0781 165.174 31.1562 164.617 31.1562ZM173.133 22.5469V23.6562H168.562V22.5469H173.133ZM170.109 20.4922H171.555V28.9062C171.555 29.1927 171.599 29.4089 171.688 29.5547C171.776 29.7005 171.891 29.7969 172.031 29.8438C172.172 29.8906 172.323 29.9141 172.484 29.9141C172.604 29.9141 172.729 29.9036 172.859 29.8828C172.995 29.8568 173.096 29.8359 173.164 29.8203L173.172 31C173.057 31.0365 172.906 31.0703 172.719 31.1016C172.536 31.138 172.315 31.1562 172.055 31.1562C171.701 31.1562 171.375 31.0859 171.078 30.9453C170.781 30.8047 170.544 30.5703 170.367 30.2422C170.195 29.9089 170.109 29.4609 170.109 28.8984V20.4922ZM183.781 29.5547V25.2031C183.781 24.8698 183.714 24.5807 183.578 24.3359C183.448 24.0859 183.25 23.8932 182.984 23.7578C182.719 23.6224 182.391 23.5547 182 23.5547C181.635 23.5547 181.315 23.6172 181.039 23.7422C180.768 23.8672 180.555 24.0312 180.398 24.2344C180.247 24.4375 180.172 24.6562 180.172 24.8906H178.727C178.727 24.5885 178.805 24.2891 178.961 23.9922C179.117 23.6953 179.341 23.4271 179.633 23.1875C179.93 22.9427 180.284 22.75 180.695 22.6094C181.112 22.4635 181.576 22.3906 182.086 22.3906C182.701 22.3906 183.242 22.4948 183.711 22.7031C184.185 22.9115 184.555 23.2266 184.82 23.6484C185.091 24.0651 185.227 24.5885 185.227 25.2188V29.1562C185.227 29.4375 185.25 29.737 185.297 30.0547C185.349 30.3724 185.424 30.6458 185.523 30.875V31H184.016C183.943 30.8333 183.885 30.612 183.844 30.3359C183.802 30.0547 183.781 29.7943 183.781 29.5547ZM184.031 25.875L184.047 26.8906H182.586C182.174 26.8906 181.807 26.9245 181.484 26.9922C181.161 27.0547 180.891 27.151 180.672 27.2812C180.453 27.4115 180.286 27.5755 180.172 27.7734C180.057 27.9661 180 28.1927 180 28.4531C180 28.7188 180.06 28.9609 180.18 29.1797C180.299 29.3984 180.479 29.5729 180.719 29.7031C180.964 29.8281 181.263 29.8906 181.617 29.8906C182.06 29.8906 182.451 29.7969 182.789 29.6094C183.128 29.4219 183.396 29.1927 183.594 28.9219C183.797 28.651 183.906 28.388 183.922 28.1328L184.539 28.8281C184.503 29.0469 184.404 29.2891 184.242 29.5547C184.081 29.8203 183.865 30.0755 183.594 30.3203C183.328 30.5599 183.01 30.7604 182.641 30.9219C182.276 31.0781 181.865 31.1562 181.406 31.1562C180.833 31.1562 180.331 31.0443 179.898 30.8203C179.471 30.5964 179.138 30.2969 178.898 29.9219C178.664 29.5417 178.547 29.1172 178.547 28.6484C178.547 28.1953 178.635 27.7969 178.812 27.4531C178.99 27.1042 179.245 26.8151 179.578 26.5859C179.911 26.3516 180.312 26.1745 180.781 26.0547C181.25 25.9349 181.773 25.875 182.352 25.875H184.031ZM193.625 31H192.18V21.6562C192.18 21.0469 192.289 20.5339 192.508 20.1172C192.732 19.6953 193.052 19.3776 193.469 19.1641C193.885 18.9453 194.38 18.8359 194.953 18.8359C195.12 18.8359 195.286 18.8464 195.453 18.8672C195.625 18.888 195.792 18.9193 195.953 18.9609L195.875 20.1406C195.766 20.1146 195.641 20.0964 195.5 20.0859C195.365 20.0755 195.229 20.0703 195.094 20.0703C194.786 20.0703 194.521 20.1328 194.297 20.2578C194.078 20.3776 193.911 20.5547 193.797 20.7891C193.682 21.0234 193.625 21.3125 193.625 21.6562V31ZM195.422 22.5469V23.6562H190.844V22.5469H195.422ZM198.477 23.875V31H197.031V22.5469H198.438L198.477 23.875ZM201.117 22.5L201.109 23.8438C200.99 23.8177 200.875 23.8021 200.766 23.7969C200.661 23.7865 200.542 23.7812 200.406 23.7812C200.073 23.7812 199.779 23.8333 199.523 23.9375C199.268 24.0417 199.052 24.1875 198.875 24.375C198.698 24.5625 198.557 24.7865 198.453 25.0469C198.354 25.3021 198.289 25.5833 198.258 25.8906L197.852 26.125C197.852 25.6146 197.901 25.1354 198 24.6875C198.104 24.2396 198.263 23.8438 198.477 23.5C198.69 23.151 198.961 22.8802 199.289 22.6875C199.622 22.4896 200.018 22.3906 200.477 22.3906C200.581 22.3906 200.701 22.4036 200.836 22.4297C200.971 22.4505 201.065 22.474 201.117 22.5ZM205.805 31.1562C205.216 31.1562 204.682 31.0573 204.203 30.8594C203.729 30.6562 203.32 30.3724 202.977 30.0078C202.638 29.6432 202.378 29.2109 202.195 28.7109C202.013 28.2109 201.922 27.6641 201.922 27.0703V26.7422C201.922 26.0547 202.023 25.4427 202.227 24.9062C202.43 24.3646 202.706 23.9062 203.055 23.5312C203.404 23.1562 203.799 22.8724 204.242 22.6797C204.685 22.487 205.143 22.3906 205.617 22.3906C206.221 22.3906 206.742 22.4948 207.18 22.7031C207.622 22.9115 207.984 23.2031 208.266 23.5781C208.547 23.9479 208.755 24.3854 208.891 24.8906C209.026 25.3906 209.094 25.9375 209.094 26.5312V27.1797H202.781V26H207.648V25.8906C207.628 25.5156 207.549 25.151 207.414 24.7969C207.284 24.4427 207.076 24.151 206.789 23.9219C206.503 23.6927 206.112 23.5781 205.617 23.5781C205.289 23.5781 204.987 23.6484 204.711 23.7891C204.435 23.9245 204.198 24.1276 204 24.3984C203.802 24.6693 203.648 25 203.539 25.3906C203.43 25.7812 203.375 26.2318 203.375 26.7422V27.0703C203.375 27.4714 203.43 27.849 203.539 28.2031C203.654 28.5521 203.818 28.8594 204.031 29.125C204.25 29.3906 204.513 29.599 204.82 29.75C205.133 29.901 205.487 29.9766 205.883 29.9766C206.393 29.9766 206.826 29.8724 207.18 29.6641C207.534 29.4557 207.844 29.1771 208.109 28.8281L208.984 29.5234C208.802 29.7995 208.57 30.0625 208.289 30.3125C208.008 30.5625 207.661 30.7656 207.25 30.9219C206.844 31.0781 206.362 31.1562 205.805 31.1562ZM214.289 31.1562C213.701 31.1562 213.167 31.0573 212.688 30.8594C212.214 30.6562 211.805 30.3724 211.461 30.0078C211.122 29.6432 210.862 29.2109 210.68 28.7109C210.497 28.2109 210.406 27.6641 210.406 27.0703V26.7422C210.406 26.0547 210.508 25.4427 210.711 24.9062C210.914 24.3646 211.19 23.9062 211.539 23.5312C211.888 23.1562 212.284 22.8724 212.727 22.6797C213.169 22.487 213.628 22.3906 214.102 22.3906C214.706 22.3906 215.227 22.4948 215.664 22.7031C216.107 22.9115 216.469 23.2031 216.75 23.5781C217.031 23.9479 217.24 24.3854 217.375 24.8906C217.51 25.3906 217.578 25.9375 217.578 26.5312V27.1797H211.266V26H216.133V25.8906C216.112 25.5156 216.034 25.151 215.898 24.7969C215.768 24.4427 215.56 24.151 215.273 23.9219C214.987 23.6927 214.596 23.5781 214.102 23.5781C213.773 23.5781 213.471 23.6484 213.195 23.7891C212.919 23.9245 212.682 24.1276 212.484 24.3984C212.286 24.6693 212.133 25 212.023 25.3906C211.914 25.7812 211.859 26.2318 211.859 26.7422V27.0703C211.859 27.4714 211.914 27.849 212.023 28.2031C212.138 28.5521 212.302 28.8594 212.516 29.125C212.734 29.3906 212.997 29.599 213.305 29.75C213.617 29.901 213.971 29.9766 214.367 29.9766C214.878 29.9766 215.31 29.8724 215.664 29.6641C216.018 29.4557 216.328 29.1771 216.594 28.8281L217.469 29.5234C217.286 29.7995 217.055 30.0625 216.773 30.3125C216.492 30.5625 216.146 30.7656 215.734 30.9219C215.328 31.0781 214.846 31.1562 214.289 31.1562ZM228.555 34.25V24.1719L228.68 22.5469H230.008V34.25H228.555ZM222.875 26.8672V26.7031C222.875 26.0573 222.951 25.4714 223.102 24.9453C223.253 24.4141 223.474 23.9583 223.766 23.5781C224.057 23.1979 224.409 22.9062 224.82 22.7031C225.237 22.4948 225.711 22.3906 226.242 22.3906C226.773 22.3906 227.24 22.4844 227.641 22.6719C228.047 22.8542 228.391 23.1224 228.672 23.4766C228.958 23.8255 229.185 24.2474 229.352 24.7422C229.518 25.237 229.633 25.7969 229.695 26.4219V27.1406C229.638 27.7604 229.526 28.3177 229.359 28.8125C229.193 29.3073 228.966 29.7292 228.68 30.0781C228.398 30.4271 228.052 30.6953 227.641 30.8828C227.234 31.0651 226.763 31.1562 226.227 31.1562C225.706 31.1562 225.237 31.0495 224.82 30.8359C224.409 30.6224 224.057 30.3229 223.766 29.9375C223.479 29.5521 223.258 29.099 223.102 28.5781C222.951 28.0521 222.875 27.4818 222.875 26.8672ZM224.328 26.7031V26.8672C224.328 27.2891 224.372 27.6875 224.461 28.0625C224.549 28.4323 224.685 28.7604 224.867 29.0469C225.055 29.3333 225.289 29.5599 225.57 29.7266C225.857 29.888 226.195 29.9688 226.586 29.9688C227.065 29.9688 227.464 29.8646 227.781 29.6562C228.104 29.4479 228.362 29.1745 228.555 28.8359C228.747 28.4922 228.896 28.125 229 27.7344V25.8516C228.943 25.5651 228.852 25.2865 228.727 25.0156C228.607 24.7448 228.451 24.5026 228.258 24.2891C228.065 24.0703 227.831 23.8984 227.555 23.7734C227.284 23.6432 226.966 23.5781 226.602 23.5781C226.206 23.5781 225.865 23.6615 225.578 23.8281C225.292 23.9948 225.055 24.224 224.867 24.5156C224.685 24.8021 224.549 25.1328 224.461 25.5078C224.372 25.8828 224.328 26.2812 224.328 26.7031ZM237.5 29.0469V22.5469H238.953V31H237.57L237.5 29.0469ZM237.773 27.2656L238.375 27.25C238.375 27.8125 238.315 28.3333 238.195 28.8125C238.081 29.2865 237.893 29.6979 237.633 30.0469C237.372 30.3958 237.031 30.6693 236.609 30.8672C236.188 31.0599 235.674 31.1562 235.07 31.1562C234.659 31.1562 234.281 31.0964 233.938 30.9766C233.599 30.8568 233.307 30.6719 233.062 30.4219C232.818 30.1719 232.628 29.8464 232.492 29.4453C232.362 29.0443 232.297 28.5625 232.297 28V22.5469H233.742V28.0156C233.742 28.3958 233.784 28.7109 233.867 28.9609C233.956 29.2057 234.073 29.401 234.219 29.5469C234.37 29.6875 234.536 29.7865 234.719 29.8438C234.906 29.901 235.099 29.9297 235.297 29.9297C235.911 29.9297 236.398 29.8125 236.758 29.5781C237.117 29.3385 237.375 29.0182 237.531 28.6172C237.693 28.2109 237.773 27.7604 237.773 27.2656ZM240.773 26.8672V26.6875C240.773 26.0781 240.862 25.513 241.039 24.9922C241.216 24.4661 241.471 24.0104 241.805 23.625C242.138 23.2344 242.542 22.9323 243.016 22.7188C243.49 22.5 244.021 22.3906 244.609 22.3906C245.203 22.3906 245.737 22.5 246.211 22.7188C246.69 22.9323 247.096 23.2344 247.43 23.625C247.768 24.0104 248.026 24.4661 248.203 24.9922C248.38 25.513 248.469 26.0781 248.469 26.6875V26.8672C248.469 27.4766 248.38 28.0417 248.203 28.5625C248.026 29.0833 247.768 29.5391 247.43 29.9297C247.096 30.3151 246.693 30.6172 246.219 30.8359C245.75 31.0495 245.219 31.1562 244.625 31.1562C244.031 31.1562 243.497 31.0495 243.023 30.8359C242.549 30.6172 242.143 30.3151 241.805 29.9297C241.471 29.5391 241.216 29.0833 241.039 28.5625C240.862 28.0417 240.773 27.4766 240.773 26.8672ZM242.219 26.6875V26.8672C242.219 27.2891 242.268 27.6875 242.367 28.0625C242.466 28.4323 242.615 28.7604 242.812 29.0469C243.016 29.3333 243.268 29.5599 243.57 29.7266C243.872 29.888 244.224 29.9688 244.625 29.9688C245.021 29.9688 245.367 29.888 245.664 29.7266C245.966 29.5599 246.216 29.3333 246.414 29.0469C246.612 28.7604 246.76 28.4323 246.859 28.0625C246.964 27.6875 247.016 27.2891 247.016 26.8672V26.6875C247.016 26.2708 246.964 25.8776 246.859 25.5078C246.76 25.1328 246.609 24.8021 246.406 24.5156C246.208 24.224 245.958 23.9948 245.656 23.8281C245.359 23.6615 245.01 23.5781 244.609 23.5781C244.214 23.5781 243.865 23.6615 243.562 23.8281C243.266 23.9948 243.016 24.224 242.812 24.5156C242.615 24.8021 242.466 25.1328 242.367 25.5078C242.268 25.8776 242.219 26.2708 242.219 26.6875ZM253.82 22.5469V23.6562H249.25V22.5469H253.82ZM250.797 20.4922H252.242V28.9062C252.242 29.1927 252.286 29.4089 252.375 29.5547C252.464 29.7005 252.578 29.7969 252.719 29.8438C252.859 29.8906 253.01 29.9141 253.172 29.9141C253.292 29.9141 253.417 29.9036 253.547 29.8828C253.682 29.8568 253.784 29.8359 253.852 29.8203L253.859 31C253.745 31.0365 253.594 31.0703 253.406 31.1016C253.224 31.138 253.003 31.1562 252.742 31.1562C252.388 31.1562 252.062 31.0859 251.766 30.9453C251.469 30.8047 251.232 30.5703 251.055 30.2422C250.883 29.9089 250.797 29.4609 250.797 28.8984V20.4922ZM259.023 31.1562C258.435 31.1562 257.901 31.0573 257.422 30.8594C256.948 30.6562 256.539 30.3724 256.195 30.0078C255.857 29.6432 255.596 29.2109 255.414 28.7109C255.232 28.2109 255.141 27.6641 255.141 27.0703V26.7422C255.141 26.0547 255.242 25.4427 255.445 24.9062C255.648 24.3646 255.924 23.9062 256.273 23.5312C256.622 23.1562 257.018 22.8724 257.461 22.6797C257.904 22.487 258.362 22.3906 258.836 22.3906C259.44 22.3906 259.961 22.4948 260.398 22.7031C260.841 22.9115 261.203 23.2031 261.484 23.5781C261.766 23.9479 261.974 24.3854 262.109 24.8906C262.245 25.3906 262.312 25.9375 262.312 26.5312V27.1797H256V26H260.867V25.8906C260.846 25.5156 260.768 25.151 260.633 24.7969C260.503 24.4427 260.294 24.151 260.008 23.9219C259.721 23.6927 259.331 23.5781 258.836 23.5781C258.508 23.5781 258.206 23.6484 257.93 23.7891C257.654 23.9245 257.417 24.1276 257.219 24.3984C257.021 24.6693 256.867 25 256.758 25.3906C256.648 25.7812 256.594 26.2318 256.594 26.7422V27.0703C256.594 27.4714 256.648 27.849 256.758 28.2031C256.872 28.5521 257.036 28.8594 257.25 29.125C257.469 29.3906 257.732 29.599 258.039 29.75C258.352 29.901 258.706 29.9766 259.102 29.9766C259.612 29.9766 260.044 29.8724 260.398 29.6641C260.753 29.4557 261.062 29.1771 261.328 28.8281L262.203 29.5234C262.021 29.7995 261.789 30.0625 261.508 30.3125C261.227 30.5625 260.88 30.7656 260.469 30.9219C260.062 31.0781 259.581 31.1562 259.023 31.1562Z" fill="white"/>
<path d="M41.2109 28.9307H42.8984C42.8105 29.7393 42.5791 30.4629 42.2041 31.1016C41.8291 31.7402 41.2988 32.2471 40.6133 32.6221C39.9277 32.9912 39.0723 33.1758 38.0469 33.1758C37.2969 33.1758 36.6143 33.0352 35.999 32.7539C35.3896 32.4727 34.8652 32.0742 34.4258 31.5586C33.9863 31.0371 33.6465 30.4131 33.4062 29.6865C33.1719 28.9541 33.0547 28.1396 33.0547 27.2432V25.9688C33.0547 25.0723 33.1719 24.2607 33.4062 23.5342C33.6465 22.8018 33.9893 22.1748 34.4346 21.6533C34.8857 21.1318 35.4277 20.7305 36.0605 20.4492C36.6934 20.168 37.4053 20.0273 38.1963 20.0273C39.1631 20.0273 39.9805 20.209 40.6484 20.5723C41.3164 20.9355 41.835 21.4395 42.2041 22.084C42.5791 22.7227 42.8105 23.4639 42.8984 24.3076H41.2109C41.1289 23.71 40.9766 23.1973 40.7539 22.7695C40.5312 22.3359 40.2148 22.002 39.8047 21.7676C39.3945 21.5332 38.8584 21.416 38.1963 21.416C37.6279 21.416 37.127 21.5244 36.6934 21.7412C36.2656 21.958 35.9053 22.2656 35.6123 22.6641C35.3252 23.0625 35.1084 23.54 34.9619 24.0967C34.8154 24.6533 34.7422 25.2715 34.7422 25.9512V27.2432C34.7422 27.8701 34.8066 28.459 34.9355 29.0098C35.0703 29.5605 35.2725 30.0439 35.542 30.46C35.8115 30.876 36.1543 31.2041 36.5703 31.4443C36.9863 31.6787 37.4785 31.7959 38.0469 31.7959C38.7676 31.7959 39.3418 31.6816 39.7695 31.4531C40.1973 31.2246 40.5195 30.8965 40.7363 30.4688C40.959 30.041 41.1172 29.5283 41.2109 28.9307ZM50.5713 31.374V26.4785C50.5713 26.1035 50.4951 25.7783 50.3428 25.5029C50.1963 25.2217 49.9736 25.0049 49.6748 24.8525C49.376 24.7002 49.0068 24.624 48.5674 24.624C48.1572 24.624 47.7969 24.6943 47.4863 24.835C47.1816 24.9756 46.9414 25.1602 46.7656 25.3887C46.5957 25.6172 46.5107 25.8633 46.5107 26.127H44.8848C44.8848 25.7871 44.9727 25.4502 45.1484 25.1162C45.3242 24.7822 45.5762 24.4805 45.9043 24.2109C46.2383 23.9355 46.6367 23.7188 47.0996 23.5605C47.5684 23.3965 48.0898 23.3145 48.6641 23.3145C49.3555 23.3145 49.9648 23.4316 50.4922 23.666C51.0254 23.9004 51.4414 24.2549 51.7402 24.7295C52.0449 25.1982 52.1973 25.7871 52.1973 26.4961V30.9258C52.1973 31.2422 52.2236 31.5791 52.2764 31.9365C52.335 32.2939 52.4199 32.6016 52.5312 32.8594V33H50.835C50.7529 32.8125 50.6885 32.5635 50.6416 32.2529C50.5947 31.9365 50.5713 31.6436 50.5713 31.374ZM50.8525 27.2344L50.8701 28.377H49.2266C48.7637 28.377 48.3506 28.415 47.9873 28.4912C47.624 28.5615 47.3193 28.6699 47.0732 28.8164C46.8271 28.9629 46.6396 29.1475 46.5107 29.3701C46.3818 29.5869 46.3174 29.8418 46.3174 30.1348C46.3174 30.4336 46.3848 30.7061 46.5195 30.9521C46.6543 31.1982 46.8564 31.3945 47.126 31.541C47.4014 31.6816 47.7383 31.752 48.1367 31.752C48.6348 31.752 49.0742 31.6465 49.4551 31.4355C49.8359 31.2246 50.1377 30.9668 50.3604 30.6621C50.5889 30.3574 50.7119 30.0615 50.7295 29.7744L51.4238 30.5566C51.3828 30.8027 51.2715 31.0752 51.0898 31.374C50.9082 31.6729 50.665 31.96 50.3604 32.2354C50.0615 32.5049 49.7041 32.7305 49.2881 32.9121C48.8779 33.0879 48.415 33.1758 47.8994 33.1758C47.2549 33.1758 46.6895 33.0498 46.2031 32.7979C45.7227 32.5459 45.3477 32.209 45.0781 31.7871C44.8145 31.3594 44.6826 30.8818 44.6826 30.3545C44.6826 29.8447 44.7822 29.3965 44.9814 29.0098C45.1807 28.6172 45.4678 28.292 45.8428 28.0342C46.2178 27.7705 46.6689 27.5713 47.1963 27.4365C47.7236 27.3018 48.3125 27.2344 48.9629 27.2344H50.8525ZM56.3809 24.9844V33H54.7549V23.4902H56.3369L56.3809 24.9844ZM59.3516 23.4375L59.3428 24.9492C59.208 24.9199 59.0791 24.9023 58.9561 24.8965C58.8389 24.8848 58.7041 24.8789 58.5518 24.8789C58.1768 24.8789 57.8457 24.9375 57.5586 25.0547C57.2715 25.1719 57.0283 25.3359 56.8291 25.5469C56.6299 25.7578 56.4717 26.0098 56.3545 26.3027C56.2432 26.5898 56.1699 26.9062 56.1348 27.252L55.6777 27.5156C55.6777 26.9414 55.7334 26.4023 55.8447 25.8984C55.9619 25.3945 56.1406 24.9492 56.3809 24.5625C56.6211 24.1699 56.9258 23.8652 57.2949 23.6484C57.6699 23.4258 58.1152 23.3145 58.6309 23.3145C58.748 23.3145 58.8828 23.3291 59.0352 23.3584C59.1875 23.3818 59.293 23.4082 59.3516 23.4375ZM65.2754 23.4902V24.7383H60.1338V23.4902H65.2754ZM61.874 21.1787H63.5V30.6445C63.5 30.9668 63.5498 31.21 63.6494 31.374C63.749 31.5381 63.8779 31.6465 64.0361 31.6992C64.1943 31.752 64.3643 31.7783 64.5459 31.7783C64.6807 31.7783 64.8213 31.7666 64.9678 31.7432C65.1201 31.7139 65.2344 31.6904 65.3105 31.6729L65.3193 33C65.1904 33.041 65.0205 33.0791 64.8096 33.1143C64.6045 33.1553 64.3555 33.1758 64.0625 33.1758C63.6641 33.1758 63.2979 33.0967 62.9639 32.9385C62.6299 32.7803 62.3633 32.5166 62.1641 32.1475C61.9707 31.7725 61.874 31.2686 61.874 30.6357V21.1787ZM71.5859 27.8848V27.7969C71.5859 26.5195 71.7295 25.3652 72.0166 24.334C72.3037 23.2969 72.6699 22.3887 73.1152 21.6094C73.5605 20.8301 74.0293 20.1855 74.5215 19.6758C75.0137 19.1602 75.4678 18.7881 75.8838 18.5596L76.2266 19.6318C75.8809 19.8955 75.5293 20.2588 75.1719 20.7217C74.8203 21.1846 74.4951 21.7529 74.1963 22.4268C73.9033 23.1006 73.666 23.8828 73.4844 24.7734C73.3027 25.6641 73.2119 26.666 73.2119 27.7793V27.9023C73.2119 29.0156 73.3027 30.0205 73.4844 30.917C73.666 31.8076 73.9033 32.5928 74.1963 33.2725C74.4951 33.9521 74.8203 34.5293 75.1719 35.0039C75.5293 35.4844 75.8809 35.8652 76.2266 36.1465L75.8838 37.1309C75.4678 36.9023 75.0137 36.5303 74.5215 36.0146C74.0293 35.5049 73.5605 34.8604 73.1152 34.0811C72.6699 33.3076 72.3037 32.4023 72.0166 31.3652C71.7295 30.3281 71.5859 29.168 71.5859 27.8848Z" fill="#211F54"/>
<path d="M94.9834 27.7969V27.8848C94.9834 29.168 94.8398 30.3281 94.5527 31.3652C94.2656 32.4023 93.8994 33.3076 93.4541 34.0811C93.0088 34.8604 92.54 35.5049 92.0479 36.0146C91.5557 36.5303 91.1016 36.9023 90.6855 37.1309L90.3428 36.1465C90.6885 35.8828 91.0371 35.5137 91.3887 35.0391C91.7402 34.5703 92.0654 33.9902 92.3643 33.2988C92.6631 32.6133 92.9033 31.8223 93.085 30.9258C93.2666 30.0234 93.3574 29.0156 93.3574 27.9023V27.7793C93.3574 26.666 93.2607 25.6611 93.0674 24.7646C92.874 23.8623 92.6221 23.0684 92.3115 22.3828C92.0068 21.6973 91.6787 21.1201 91.3271 20.6514C90.9814 20.1768 90.6533 19.8105 90.3428 19.5527L90.6855 18.5596C91.1016 18.7881 91.5557 19.1602 92.0479 19.6758C92.54 20.1855 93.0088 20.8301 93.4541 21.6094C93.8994 22.3887 94.2656 23.2969 94.5527 24.334C94.8398 25.3652 94.9834 26.5195 94.9834 27.7969Z" fill="#211F54"/>
<path d="M88.5342 25.582V27.5332C88.5342 28.582 88.4404 29.4668 88.2529 30.1875C88.0654 30.9082 87.7959 31.4883 87.4443 31.9277C87.0928 32.3672 86.668 32.6865 86.1699 32.8857C85.6777 33.0791 85.1211 33.1758 84.5 33.1758C84.0078 33.1758 83.5537 33.1143 83.1377 32.9912C82.7217 32.8682 82.3467 32.6719 82.0127 32.4023C81.6846 32.127 81.4033 31.7695 81.1689 31.3301C80.9346 30.8906 80.7559 30.3574 80.6328 29.7305C80.5098 29.1035 80.4482 28.3711 80.4482 27.5332V25.582C80.4482 24.5332 80.542 23.6543 80.7295 22.9453C80.9229 22.2363 81.1953 21.668 81.5469 21.2402C81.8984 20.8066 82.3203 20.4961 82.8125 20.3086C83.3105 20.1211 83.8672 20.0273 84.4824 20.0273C84.9805 20.0273 85.4375 20.0889 85.8535 20.2119C86.2754 20.3291 86.6504 20.5195 86.9785 20.7832C87.3066 21.041 87.585 21.3867 87.8135 21.8203C88.0479 22.248 88.2266 22.7725 88.3496 23.3936C88.4727 24.0146 88.5342 24.7441 88.5342 25.582ZM86.8994 27.7969V25.3096C86.8994 24.7354 86.8643 24.2314 86.7939 23.7979C86.7295 23.3584 86.6328 22.9834 86.5039 22.6729C86.375 22.3623 86.2109 22.1104 86.0117 21.917C85.8184 21.7236 85.5928 21.583 85.335 21.4951C85.083 21.4014 84.7988 21.3545 84.4824 21.3545C84.0957 21.3545 83.7529 21.4277 83.4541 21.5742C83.1553 21.7148 82.9033 21.9404 82.6982 22.251C82.499 22.5615 82.3467 22.9688 82.2412 23.4727C82.1357 23.9766 82.083 24.5889 82.083 25.3096V27.7969C82.083 28.3711 82.1152 28.8779 82.1797 29.3174C82.25 29.7568 82.3525 30.1377 82.4873 30.46C82.6221 30.7764 82.7861 31.0371 82.9795 31.2422C83.1729 31.4473 83.3955 31.5996 83.6475 31.6992C83.9053 31.793 84.1895 31.8398 84.5 31.8398C84.8984 31.8398 85.2471 31.7637 85.5459 31.6113C85.8447 31.459 86.0938 31.2217 86.293 30.8994C86.498 30.5713 86.6504 30.1523 86.75 29.6426C86.8496 29.127 86.8994 28.5117 86.8994 27.7969Z" fill="#211F54"/>
</svg>
